<?xml version="1.0" encoding="UTF-8" standalone="no"?>
<!-- Created with Inkscape (http://www.inkscape.org/) -->

<svg
   xmlns:dc="http://purl.org/dc/elements/1.1/"
   xmlns:cc="http://creativecommons.org/ns#"
   xmlns:rdf="http://www.w3.org/1999/02/22-rdf-syntax-ns#"
   xmlns:svg="http://www.w3.org/2000/svg"
   xmlns="http://www.w3.org/2000/svg"
   xmlns:sodipodi="http://sodipodi.sourceforge.net/DTD/sodipodi-0.dtd"
   xmlns:inkscape="http://www.inkscape.org/namespaces/inkscape"
   width="785mm"
   height="205mm"
   viewBox="0 0 785 205"
   version="1.1"
   id="svg8"
   inkscape:version="0.92.3 (2405546, 2018-03-11)"
   sodipodi:docname="edublocksBetaLogo.svg">
  <defs
     id="defs2" />
  <sodipodi:namedview
     id="base"
     pagecolor="#ffffff"
     bordercolor="#666666"
     borderopacity="1.0"
     inkscape:pageopacity="0.0"
     inkscape:pageshadow="2"
     inkscape:zoom="0.24748737"
     inkscape:cx="714.80231"
     inkscape:cy="452.30447"
     inkscape:document-units="mm"
     inkscape:current-layer="layer1"
     showgrid="false"
     inkscape:window-width="1920"
     inkscape:window-height="1017"
     inkscape:window-x="1912"
     inkscape:window-y="-8"
     inkscape:window-maximized="1" />
  <metadata
     id="metadata5">
    <rdf:RDF>
      <cc:Work
         rdf:about="">
        <dc:format>image/svg+xml</dc:format>
        <dc:type
           rdf:resource="http://purl.org/dc/dcmitype/StillImage" />
        <dc:title></dc:title>
      </cc:Work>
    </rdf:RDF>
  </metadata>
  <g
     inkscape:label="Layer 1"
     inkscape:groupmode="layer"
     id="layer1"
     transform="translate(0,-92)">
    <path
       style="fill:#ffffff;stroke-width:0.26458335"
       d="m 102.01576,296.70153 c -2.647814,-0.33542 -6.739881,-1.3078 -8.743041,-2.07756 -9.44171,-3.62823 -16.13741,-9.65458 -20.68105,-18.61362 l -1.56581,-3.08742 -18.96702,-0.14831 -18.96703,-0.14832 -3.05176,-0.6754 C 15.604069,268.75603 4.3741999,257.48202 1.2397199,243.0374 L 0.54805993,239.85002 V 182.83231 125.8146 l 0.60590997,-2.99016 c 2.528,-12.47578 11.3020991,-22.999667 22.9896891,-27.574417 6.3891,-2.50082 7.97398,-2.64247 29.44642,-2.63163 l 17.86631,0.009 1.05032,2.1738 c 2.40278,4.97295 6.73628,10.205617 11.20925,13.535057 4.02054,2.99268 9.51576,5.51231 14.47072,6.63502 1.067117,0.24179 3.740701,0.47888 6.342621,0.56246 5.52936,0.17762 8.60532,-0.23461 13.1919,-1.76793 9.07482,-3.03375 16.80135,-9.70117 21.22103,-18.312157 l 1.45985,-2.84428 h 35.4433 35.44329 v 26.454917 26.45491 l 9.19427,0.0696 9.19427,0.0696 0.0687,13.04639 0.0686,13.04639 1.12198,-0.90699 c 3.92568,-3.17347 8.58925,-4.68058 14.48343,-4.68058 10.46621,0 18.93559,5.21442 23.42092,14.41979 2.40141,4.92846 3.38339,9.59889 3.36563,16.00729 -0.0315,11.35923 -4.42997,20.40342 -12.56463,25.83523 -6.05151,4.04081 -14.75878,5.48535 -21.99364,3.64875 -2.28111,-0.57907 -6.15751,-2.5102 -7.61471,-3.79346 -0.67718,-0.59635 -1.30225,-1.08427 -1.38906,-1.08427 -0.0868,0 -0.15784,0.9525 -0.15784,2.11667 v 2.11666 h -8.4655 -8.46549 l -0.0673,-28.90573 -0.0673,-28.90573 -9.19427,-0.0696 -9.19427,-0.0696 v 18.07937 c 0,19.95413 0.0195,19.69682 -1.66045,21.93405 -1.16936,1.55726 -3.3478,2.62424 -5.68734,2.78561 -3.23789,0.22334 -6.0139,-1.34987 -7.30411,-4.13935 -0.55139,-1.19212 -0.56405,-1.55465 -0.69393,-19.8674 l -0.13229,-18.65313 -9.07559,-0.0696 -9.07559,-0.0696 0.1025,20.31026 c 0.11012,21.81884 0.12777,22.12051 1.55183,26.52797 2.13068,6.59441 6.59171,10.81445 12.75276,12.06384 2.96257,0.60077 8.65596,0.40954 11.02013,-0.37015 2.5543,-0.84239 4.9302,-2.34282 6.94046,-4.38304 l 1.79078,-1.81748 v 2.80966 2.80967 h 8.86354 8.86355 v 23.68021 23.68021 h -35.278 -35.27799 l -1.147,2.4474 c -1.86969,3.98944 -4.28549,7.41131 -7.53115,10.66755 -5.31426,5.33159 -11.34036,8.63592 -18.53821,10.16519 -2.5763,0.54737 -9.26352,0.91413 -11.50056,0.63075 z M 61.989359,226.60791 c 3.94264,-0.31728 9.25944,-2.2398 12.80714,-4.63099 3.21554,-2.1673 7.74943,-7.10473 7.25648,-7.90234 -0.13122,-0.21232 -4.77418,-3.89271 -10.7465,-8.51855 l -0.94366,-0.73091 -1.89161,1.81807 c -4.02252,3.86616 -9.43571,5.1921 -14.57235,3.56943 -4.07069,-1.28593 -6.91044,-4.2406 -7.81559,-8.13188 l -0.16925,-0.7276 h 18.92275 18.92275 l -0.005,-3.9026 c -0.0134,-10.1396 -2.48136,-17.80219 -7.48133,-23.22845 -3.21714,-3.49144 -7.20418,-5.82483 -12.3028,-7.20014 -2.37274,-0.64003 -2.98041,-0.69309 -7.99196,-0.69775 -4.74947,-0.004 -5.67649,0.0656 -7.45474,0.56275 -5.06879,1.41717 -9.27485,3.86904 -12.67352,7.38789 -5.65568,5.85564 -8.50211,13.32251 -8.50698,22.3158 -0.005,9.0544 2.81977,16.33429 8.52085,21.96042 3.59789,3.55058 7.97454,5.98175 13.11681,7.28619 4.12258,1.04578 7.27169,1.23234 13.00867,0.77066 z m -14.57444,-37.09432 c -0.72404,-0.1029 -0.75057,-0.15507 -0.58987,-1.16001 0.43031,-2.69102 2.26187,-5.09157 4.8602,-6.37006 1.62927,-0.80167 1.97064,-0.87063 4.28838,-0.86623 2.15792,0.004 2.73197,0.10433 4.01254,0.70061 1.63304,0.76041 3.37757,2.34237 4.09379,3.71231 0.53538,1.02404 1.19364,3.64613 0.99573,3.96636 -0.13341,0.21586 -16.15299,0.23129 -17.66077,0.017 z m 73.541871,36.96038 c 3.45139,-0.53688 7.55587,-2.32836 9.74067,-4.2515 0.64082,-0.56407 1.23615,-1.02558 1.32296,-1.02558 0.0868,0 0.15784,0.9525 0.15784,2.11667 v 2.11666 h 8.46666 8.46667 v -39.95556 -39.95555 l -9.06198,0.0696 -9.06198,0.0696 -0.0686,13.04639 -0.0686,13.04639 -1.12197,-0.90699 c -2.55179,-2.06283 -5.87215,-3.5753 -9.42821,-4.29466 -3.01075,-0.60905 -9.06915,-0.42387 -11.93439,0.36478 -9.878391,2.71901 -16.249151,9.49711 -18.921661,20.1315 -1.75518,6.98413 -1.45542,14.65441 0.83087,21.26078 4.52874,13.08601 16.766181,20.3321 30.681821,18.16743 z m -4.38895,-15.88462 c -1.93971,-0.37602 -4.82112,-1.94968 -6.12787,-3.3467 -1.68445,-1.80081 -2.52783,-3.37333 -3.16895,-5.90864 -0.4757,-1.88112 -0.53742,-2.70419 -0.41446,-5.52733 0.21064,-4.8364 1.21066,-7.4265 3.90919,-10.12503 2.65446,-2.65447 6.36947,-3.79421 10.35599,-3.17716 5.03065,0.77868 8.98032,4.83058 9.97397,10.23214 0.40514,2.20238 0.35261,6.06374 -0.10914,8.02214 -1.6572,7.02872 -7.68217,11.13649 -14.41873,9.83058 z m 127.29347,0.0187 c 2.06195,-0.39104 4.52584,-1.63106 6.02243,-3.03094 1.543,-1.4433 3.03955,-4.15497 3.59606,-6.51586 0.52118,-2.21097 0.52335,-6.8133 0.004,-8.84682 -1.74294,-6.82702 -7.19739,-10.67519 -13.78582,-9.72604 -4.58071,0.65992 -8.23334,3.78499 -9.654,8.25965 -0.79402,2.5009 -0.97866,7.23237 -0.38617,9.89552 1.57614,7.08444 7.49479,11.23673 14.20331,9.96449 z m 349.2211,29.474 c -6.10454,-0.82391 -13.19588,-3.1757 -18.59581,-6.16715 -9.50077,-5.26325 -18.25871,-14.80602 -22.5425,-24.56263 -5.46465,-12.44617 -6.09021,-25.63513 -1.82179,-38.41184 2.51325,-7.52299 6.31103,-13.75978 11.96708,-19.65257 8.79131,-9.1593 20.15794,-14.71156 32.90083,-16.07107 3.44297,-0.36732 139.281,-0.37126 142.81927,-0.004 12.28646,1.27479 23.37803,6.54326 32.10981,15.25208 14.1211,14.08395 19.08519,34.83734 12.87201,53.81417 -5.60568,17.12143 -19.9457,30.38032 -37.57555,34.74266 -6.30467,1.56004 -2.6399,1.49235 -79.18804,1.46266 -58.95223,-0.0229 -70.6112,-0.0871 -72.94531,-0.40217 z m 66.54271,-20.34249 c 4.52059,-0.93385 8.46852,-3.11682 11.9385,-6.60127 2.63896,-2.64995 3.08682,-3.42219 2.30815,-3.97988 -0.26858,-0.19235 -2.54198,-1.94127 -5.05201,-3.88647 l -4.56372,-3.53674 -1.59686,1.51952 c -1.958,1.86316 -4.30477,3.02155 -6.95659,3.43381 -5.57149,0.86618 -11.00632,-2.22856 -12.04158,-6.85678 l -0.25151,-1.12448 h 16.11146 16.11145 l -0.003,-3.37344 c -0.004,-9.09438 -2.35522,-15.67394 -7.31769,-20.47926 -4.12425,-3.99366 -9.39109,-5.85195 -16.62554,-5.86596 -6.46565,-0.0125 -11.12692,1.69194 -15.77557,5.76854 -7.18439,6.30029 -10.17082,17.60788 -7.35187,27.8367 2.2262,8.07803 8.29463,14.22423 16.45078,16.66163 3.93142,1.17487 10.25605,1.38437 14.61416,0.48408 z m -15.58488,-31.04515 c -0.21405,-0.34636 0.35062,-2.17433 1.04127,-3.37073 1.53574,-2.66039 4.2011,-3.99209 7.51231,-3.75341 2.16532,0.15608 4.10406,1.09145 5.39977,2.60518 0.95473,1.11537 1.76382,3.00894 1.76382,4.12791 v 0.61432 h -7.78959 c -4.28427,0 -7.8517,-0.10047 -7.92758,-0.22327 z m 90.70181,31.32484 c 2.36633,-0.45275 3.98399,-1.12665 5.7499,-2.39533 0.70813,-0.50874 1.3313,-0.92499 1.38483,-0.92499 0.0535,0 0.24728,0.53578 0.43063,1.19063 l 0.33335,1.19062 h 6.99087 6.99088 l -0.0898,-17.66093 c -0.0879,-17.27906 -0.10247,-17.7062 -0.67527,-19.75388 -1.0976,-3.92375 -2.4429,-6.19492 -4.90379,-8.27876 -2.95005,-2.49803 -6.57905,-3.81023 -12.00195,-4.33975 -7.31223,-0.714 -15.38052,1.05226 -21.72022,4.75485 l -1.86206,1.0875 2.81953,5.15581 c 1.55075,2.8357 2.95355,5.15867 3.11735,5.16215 0.16378,0.004 0.97782,-0.29439 1.80893,-0.66195 3.05131,-1.34943 6.3436,-2.03728 9.9318,-2.07503 2.93102,-0.0308 3.4567,0.0341 4.62055,0.57062 0.72228,0.33298 1.53863,0.80923 1.81409,1.05833 0.91209,0.82482 1.50285,2.34619 1.50285,3.87022 v 1.45402 l -1.06539,-0.3759 c -3.76143,-1.32711 -9.91804,-1.63383 -14.14815,-0.70485 -6.83657,1.50139 -11.37724,5.62738 -12.86216,11.68755 -0.48051,1.96098 -0.41749,6.08264 0.12541,8.20209 1.28932,5.03344 4.96298,8.96118 10.1304,10.83104 3.67374,1.32935 7.8315,1.67266 11.57745,0.95594 z m -2.57678,-11.88476 c -5.16866,-1.45799 -5.48605,-7.55522 -0.49138,-9.44008 3.36039,-1.26812 7.63947,-0.12483 8.97331,2.39749 1.43606,2.71561 0.31975,5.54099 -2.70541,6.84751 -1.17899,0.5092 -4.29046,0.61427 -5.77652,0.19508 z m -24.9813,11.35491 c 0.4231,-0.1839 0.46303,-0.76647 0.46303,-6.75675 v -6.55551 l -2.57969,-0.10497 c -3.13656,-0.12764 -4.58965,-0.78407 -5.46796,-2.47011 -0.52591,-1.00958 -0.55478,-1.51844 -0.62656,-11.04636 l -0.0752,-9.98802 h 4.11015 4.11014 v -6.21771 -6.2177 h -4.10104 -4.10104 v -5.15938 -5.15938 h -7.80521 -7.80521 v 5.15938 5.15938 h -2.38125 -2.38125 v 6.2177 6.21771 h 2.38125 2.38125 v 9.73038 c 0,5.35171 0.12335,10.73929 0.27411,11.9724 1.09995,8.99692 5.1762,13.76694 13.08735,15.31484 1.4869,0.29093 9.80162,0.21511 10.51718,-0.0959 z m -99.5836,-1.02634 c 9.19186,-2.45386 14.33004,-8.09862 15.05148,-16.53542 0.6658,-7.78598 -1.81099,-13.21431 -7.38473,-16.18509 l -1.65127,-0.88011 0.64736,-0.40086 c 0.35602,-0.22047 1.3617,-1.1294 2.23483,-2.01984 1.74466,-1.77926 3.00119,-4.06702 3.72158,-6.77578 0.59295,-2.22965 0.60634,-6.6531 0.0274,-9.03765 -1.07291,-4.41873 -3.97412,-8.11671 -7.98226,-10.17444 -4.84963,-2.48974 -6.82006,-2.72227 -23.0849,-2.72421 l -13.03073,-0.002 v 32.6902 32.6902 l 14.88281,-0.0977 c 12.96549,-0.0851 15.09999,-0.15569 16.56848,-0.54772 z m -15.57629,-19.61419 v -6.79661 l 5.09323,0.0864 c 5.01978,0.0851 5.11125,0.097 6.34296,0.82101 0.81042,0.47639 1.50799,1.17397 1.98438,1.98438 0.66386,1.12935 0.73464,1.49185 0.73464,3.76328 0,2.72715 -0.25143,3.47923 -1.62907,4.87301 -1.54051,1.55854 -2.66099,1.83864 -7.82978,1.95732 l -4.69636,0.10784 z m 0,-25.57318 v -6.11702 l 4.16719,0.11343 c 4.98276,0.13564 6.17207,0.51477 7.3891,2.35551 0.68146,1.03068 0.74684,1.33962 0.74684,3.52911 0,2.72162 -0.37047,3.6396 -2.00041,4.9569 -1.17867,0.95256 -2.9971,1.2755 -7.19386,1.27757 l -3.10886,0.002 z m -258.49791,53.45924 c -1.38244,-0.11931 -3.3738,-0.39989 -4.42523,-0.62351 -14.77047,-3.14144 -24.36961,-15.87262 -23.53792,-31.21792 0.68149,-12.57401 8.57618,-23.06721 20.30492,-26.98819 3.76449,-1.2585 6.80133,-1.74196 10.93404,-1.74069 9.26449,0.003 16.76699,2.87244 22.74319,8.69894 5.27804,5.14585 7.98263,11.1105 8.63145,19.03552 1.17993,14.4126 -7.01347,26.83913 -20.68719,31.37529 -3.76449,1.24884 -9.48415,1.84712 -13.96326,1.46056 z m 7.52878,-16.78182 c 5.63401,-1.98785 8.87991,-6.91089 8.87224,-13.45649 -0.006,-5.25003 -1.8692,-9.20669 -5.55135,-11.78957 -3.76362,-2.64003 -9.06148,-3.1117 -13.16207,-1.17181 -3.11084,1.47167 -5.91034,4.97457 -6.84633,8.56655 -0.60074,2.30543 -0.60317,6.71759 -0.005,8.98677 0.87143,3.3056 3.35579,6.58721 6.02858,7.96316 3.34449,1.72174 7.37362,2.06231 10.66393,0.90139 z m 162.06913,16.79154 c -5.00724,-0.45329 -9.74629,-2.10494 -13.79069,-4.80633 -1.98797,-1.32783 -5.26248,-4.39438 -5.25761,-4.9237 0,-0.10084 2.29716,-2.40038 5.10278,-5.11007 l 5.10108,-4.92671 1.4087,1.1241 c 1.91881,1.53113 4.89812,2.97936 7.08028,3.44171 2.11219,0.44752 5.62215,0.50704 7.01918,0.11902 2.11614,-0.58773 2.98363,-2.88006 1.6774,-4.43243 -0.90045,-1.07012 -2.63551,-1.88538 -8.34112,-3.91923 -2.69213,-0.95966 -5.87642,-2.27491 -7.0762,-2.92277 -6.93886,-3.74694 -10.1074,-8.83387 -10.1178,-16.24357 -0.006,-4.20712 0.9257,-7.17117 3.20117,-10.185 3.74827,-4.96454 10.56026,-7.79611 18.75533,-7.79611 5.56874,0 10.00527,1.14778 13.99125,3.61971 1.99165,1.23514 6.77256,5.68392 6.60201,6.14338 -0.0896,0.24149 -10.36534,8.47952 -11.32271,9.07739 -0.45611,0.28485 -0.63775,0.21854 -1.39184,-0.5081 -1.22383,-1.1793 -3.79711,-2.672 -5.42361,-3.14612 -1.80634,-0.52655 -4.56793,-0.52199 -5.5952,0.009 -2.36058,1.22071 -2.09113,3.76884 0.57158,5.40501 0.46681,0.28683 3.3991,1.3702 6.51626,2.40748 3.31341,1.1026 6.77524,2.4547 8.33438,3.25518 6.52121,3.34811 9.75947,9.00832 9.33966,16.32491 -0.34692,6.04645 -3.40167,11.17636 -8.48707,14.2525 -4.86108,2.94046 -11.47209,4.32217 -17.89721,3.74052 z m -105.96562,-0.41391 c -10.49258,-1.8585 -18.74313,-8.36129 -22.48931,-17.72527 -2.67592,-6.68873 -2.96395,-14.83688 -0.77219,-21.84568 2.56487,-8.20199 9.08545,-15.20759 17.02755,-18.29408 3.96465,-1.54076 6.68215,-2.0825 11.20232,-2.23319 4.87495,-0.16252 7.02577,0.11163 11.03892,1.40702 2.59673,0.83819 7.40833,3.31475 7.40833,3.81312 0,0.2536 -4.77268,15.17307 -4.89455,15.30043 -0.0444,0.0464 -0.65791,-0.32632 -1.36337,-0.82823 -4.96043,-3.52903 -11.43296,-4.27724 -16.44909,-1.90146 -3.58706,1.69894 -5.98233,4.94765 -6.79579,9.21708 -0.48361,2.53829 -0.48419,3.67265 -0.003,6.37149 1.82847,10.26125 13.4853,14.29689 23.23143,8.04282 0.69723,-0.44741 1.33472,-0.74645 1.41664,-0.66453 0.0819,0.0819 1.20388,3.40122 2.49322,7.37623 l 2.34429,7.22728 -0.58505,0.49311 c -1.75297,1.47748 -7.24175,3.66951 -10.69716,4.27209 -2.83847,0.49499 -9.24322,0.48006 -12.11291,-0.0282 z m -117.2774,-40.78646 0.067,-39.88593 9.06198,-0.0696 9.06198,-0.0696 v 39.95555 39.95556 h -9.12898 -9.12899 z m 147.83677,-0.0661 v -39.95209 h 9.12665 9.12664 l 0.0676,22.50837 0.0676,22.50837 7.68146,-11.46201 7.68147,-11.46202 10.11177,-0.0693 c 6.35613,-0.0436 10.11175,0.0254 10.11175,0.18559 0,0.14019 -3.30972,4.9934 -7.35495,10.78492 -10.62805,15.21606 -10.72042,15.35418 -10.55619,15.78221 0.0818,0.21302 4.4572,7.15298 9.7232,15.42212 5.26599,8.26915 9.63249,15.18581 9.70329,15.37037 0.10271,0.26767 -2.03118,0.33394 -10.54901,0.32763 l -10.67778,-0.008 -3.01258,-5.08532 c -1.6569,-2.79692 -5.22878,-8.79423 -7.93751,-13.32734 l -4.92492,-8.24202 -0.0686,13.33525 -0.0686,13.33525 h -9.12571 -9.1257 v -39.95208 z"
       id="path32"
       inkscape:connector-curvature="0" />
  </g>
</svg>
